<svg xmlns="http://www.w3.org/2000/svg">
<defs>
<g id="wave2">
<path d="M 0,400 C 0,400 0,200 0,200 C 51.32050841635176,244.2349708004122 102.64101683270351,288.4699416008244 168,262 C 233.3589831672965,235.53005839917554 312.7564410855377,138.3552043971144 391,137 C 469.2435589144623,135.6447956028856 546.3332188251459,230.10924081071795 619,243 C 691.6667811748541,255.89075918928205 759.9106836138784,187.20783236001375 836,184 C 912.0893163861216,180.79216763998625 996.0240467193403,243.0594297492271 1060,263 C 1123.9759532806597,282.9405702507729 1167.99312950876,260.554448643078 1228,243 C 1288.00687049124,225.445551356922 1364.00343524562,212.722775678461 1440,200 C 1440,200 1440,400 1440,400 Z" 
stroke="none" stroke-width="0" fill="#f006eff" transform="translate(0 0)">
</path>
</g>
<g id="wave1">
<path d="M 0,400 C 0,400 0,200 0,200 C 51.32050841635176,244.2349708004122 102.64101683270351,288.4699416008244 168,262 C 233.3589831672965,235.53005839917554 312.7564410855377,138.3552043971144 391,137 C 469.2435589144623,135.6447956028856 546.3332188251459,230.10924081071795 619,243 C 691.6667811748541,255.89075918928205 759.9106836138784,187.20783236001375 836,184 C 912.0893163861216,180.79216763998625 996.0240467193403,243.0594297492271 1060,263 C 1123.9759532806597,282.9405702507729 1167.99312950876,260.554448643078 1228,243 C 1288.00687049124,225.445551356922 1364.00343524562,212.722775678461 1440,200 C 1440,200 1440,400 1440,400 Z" 
stroke="none" stroke-width="0" fill="#000000" transform="translate(0 100)"></path>
</g>

<g id="wave3">
<path d="M0,128L13.3,112C26.7,96,53,64,80,80C106.7,96,133,160,160,197.3C186.7,235,213,245,240,213.3C266.7,181,293,107,320,80C346.7,53,373,75,400,90.7C426.7,107,453,117,480,128C506.7,139,533,149,560,170.7C586.7,192,613,224,640,197.3C666.7,171,693,85,720,85.3C746.7,85,773,171,800,192C826.7,213,853,171,880,154.7C906.7,139,933,149,960,144C986.7,139,1013,117,1040,122.7C1066.7,128,1093,160,1120,181.3C1146.7,203,1173,213,1200,197.3C1226.7,181,1253,139,1280,122.7C1306.7,107,1333,117,1360,133.3C1386.7,149,1413,171,1427,181.3L1440,192L1440,320L1426.7,320C1413.3,320,1387,320,1360,320C1333.3,320,1307,320,1280,320C1253.3,320,1227,320,1200,320C1173.3,320,1147,320,1120,320C1093.3,320,1067,320,1040,320C1013.3,320,987,320,960,320C933.3,320,907,320,880,320C853.3,320,827,320,800,320C773.3,320,747,320,720,320C693.3,320,667,320,640,320C613.3,320,587,320,560,320C533.3,320,507,320,480,320C453.3,320,427,320,400,320C373.3,320,347,320,320,320C293.3,320,267,320,240,320C213.3,320,187,320,160,320C133.3,320,107,320,80,320C53.3,320,27,320,13,320L0,320Z"
stroke="none" stroke-width="0" fill="#000000" transform="translate(0 100)">
</path>
</g>


</defs>
</svg>