<svg xmlns="http://www.w3.org/2000/svg">
<defs>
<g id="wave2">
<path d="M 0,400 C 0,400 0,200 0,200 C 51.32050841635176,244.2349708004122 102.64101683270351,288.4699416008244 168,262 C 233.3589831672965,235.53005839917554 312.7564410855377,138.3552043971144 391,137 C 469.2435589144623,135.6447956028856 546.3332188251459,230.10924081071795 619,243 C 691.6667811748541,255.89075918928205 759.9106836138784,187.20783236001375 836,184 C 912.0893163861216,180.79216763998625 996.0240467193403,243.0594297492271 1060,263 C 1123.9759532806597,282.9405702507729 1167.99312950876,260.554448643078 1228,243 C 1288.00687049124,225.445551356922 1364.00343524562,212.722775678461 1440,200 C 1440,200 1440,400 1440,400 Z" 
stroke="none" stroke-width="0" fill="#f006eff" transform="translate(0 0)">
</path>
</g>
<g id="wave1">
<path d="M 0,400 C 0,400 0,200 0,200 C 51.32050841635176,244.2349708004122 102.64101683270351,288.4699416008244 168,262 C 233.3589831672965,235.53005839917554 312.7564410855377,138.3552043971144 391,137 C 469.2435589144623,135.6447956028856 546.3332188251459,230.10924081071795 619,243 C 691.6667811748541,255.89075918928205 759.9106836138784,187.20783236001375 836,184 C 912.0893163861216,180.79216763998625 996.0240467193403,243.0594297492271 1060,263 C 1123.9759532806597,282.9405702507729 1167.99312950876,260.554448643078 1228,243 C 1288.00687049124,225.445551356922 1364.00343524562,212.722775678461 1440,200 C 1440,200 1440,400 1440,400 Z" 
stroke="none" stroke-width="0" fill="#000000" transform="translate(0 100)"></path>
</g>

<g id="wave3">
<path d="M0,128L13.3,112C26.7,96,53,64,80,80C106.7,96,133,160,160,197.3C186.7,235,213,245,240,213.3C266.7,181,293,107,320,80C346.7,53,373,75,400,90.7C426.7,107,453,117,480,128C506.7,139,533,149,560,170.7C586.7,192,613,224,640,197.3C666.7,171,693,85,720,85.3C746.7,85,773,171,800,192C826.7,213,853,171,880,154.7C906.7,139,933,149,960,144C986.7,139,1013,117,1040,122.7C1066.7,128,1093,160,1120,181.3C1146.7,203,1173,213,1200,197.3C1226.7,181,1253,139,1280,122.7C1306.7,107,1333,117,1360,133.3C1386.7,149,1413,171,1427,181.3L1440,192L1440,320L1426.7,320C1413.3,320,1387,320,1360,320C1333.3,320,1307,320,1280,320C1253.3,320,1227,320,1200,320C1173.3,320,1147,320,1120,320C1093.3,320,1067,320,1040,320C1013.3,320,987,320,960,320C933.3,320,907,320,880,320C853.3,320,827,320,800,320C773.3,320,747,320,720,320C693.3,320,667,320,640,320C613.3,320,587,320,560,320C533.3,320,507,320,480,320C453.3,320,427,320,400,320C373.3,320,347,320,320,320C293.3,320,267,320,240,320C213.3,320,187,320,160,320C133.3,320,107,320,80,320C53.3,320,27,320,13,320L0,320Z"
stroke="none" stroke-width="0" fill="#000000" transform="translate(0 100)">
</path>
</g>

<g id="wave4">
 <path d="M0,288L30,272C60,256,120,224,180,218.7C240,213,300,235,360,256C420,277,480,299,540,261.3C600,224,660,128,720,101.3C780,75,840,117,900,149.3C960,181,1020,203,1080,202.7C1140,203,1200,181,1260,186.7C1320,192,1380,224,1410,240L1440,256L1440,320L1410,320C1380,320,1320,320,1260,320C1200,320,1140,320,1080,320C1020,320,960,320,900,320C840,320,780,320,720,320C660,320,600,320,540,320C480,320,420,320,360,320C300,320,240,320,180,320C120,320,60,320,30,320L0,320Z"
 stroke="none" stroke-width="0" fill="#000000" transform="translate(0 100)">
 </path>
</g>

<g id="wave5">
<path d="M0,96L26.7,96C53.3,96,107,96,160,90.7C213.3,85,267,75,320,106.7C373.3,139,427,213,480,213.3C533.3,213,587,139,640,133.3C693.3,128,747,192,800,197.3C853.3,203,907,149,960,144C1013.3,139,1067,181,1120,218.7C1173.3,256,1227,288,1280,256C1333.3,224,1387,128,1413,80L1440,32L1440,320L1413.3,320C1386.7,320,1333,320,1280,320C1226.7,320,1173,320,1120,320C1066.7,320,1013,320,960,320C906.7,320,853,320,800,320C746.7,320,693,320,640,320C586.7,320,533,320,480,320C426.7,320,373,320,320,320C266.7,320,213,320,160,320C106.7,320,53,320,27,320L0,320Z"
stroke="none" stroke-width="0" fill="#000000" transform="translate(0 100)"></path>
</g>


</defs>
</svg>